<svg width="40" height="38" viewBox="0 0 40 38" fill="none" xmlns="http://www.w3.org/2000/svg">
<path d="M18.6287 10.4705C18.6287 4.65354 15.1197 0 10.7336 0C10.7336 0 10.6605 0 10.5873 0H2.10742C1.23019 0 0.572266 0.872539 0.572266 2.03592V35.871C0.572266 37.0344 1.23019 37.907 2.10742 37.907H10.4411C14.8273 37.907 18.3362 33.2534 18.3362 27.4365C18.3362 24.0433 17.0935 21.0379 15.1928 19.0989C17.2397 17.063 18.6287 13.9606 18.6287 10.4705ZM15.339 27.3395C15.339 30.8297 13.1459 33.7382 10.5142 33.7382H3.71569V20.9409H10.4411C13.1459 20.9409 15.339 23.8494 15.339 27.3395ZM10.5873 16.8691H10.4411C10.368 16.8691 10.368 16.8691 10.2949 16.8691H3.56948V4.07185H10.2218C10.2949 4.07185 10.368 4.07185 10.4411 4.07185C10.5142 4.07185 10.5142 4.07185 10.5873 4.07185C13.219 4.07185 15.4121 6.98031 15.4121 10.4705C15.4852 13.9606 13.2922 16.8691 10.5873 16.8691ZM29.6672 12.4094C24.4038 12.4094 20.0907 18.1294 20.0907 25.1097C20.0907 32.09 24.4038 37.81 29.6672 37.81C32.4451 37.81 35.1499 36.1619 36.9775 33.3504C37.5623 32.4778 37.4161 31.2175 36.8313 30.4419C36.1733 29.6663 35.223 29.8602 34.6382 30.6358C33.3954 32.5748 31.5679 33.6412 29.6672 33.6412C26.5969 33.6412 24.0383 30.8297 23.3072 27.0487H37.7085C38.5857 27.0487 39.2436 26.1762 39.2436 25.0128C39.2436 18.1294 34.9306 12.4094 29.6672 12.4094ZM29.6672 16.4813C32.7375 16.4813 35.2961 19.2928 36.0271 23.0738H23.3803C23.9652 19.2928 26.5238 16.4813 29.6672 16.4813ZM24.8424 10.4705H34.5651C35.4423 10.4705 36.1002 9.59793 36.1002 8.43454C36.1002 7.27116 35.4423 6.39862 34.5651 6.39862H24.8424C23.9652 6.39862 23.3072 7.27116 23.3072 8.43454C23.3072 9.59793 23.9652 10.4705 24.8424 10.4705Z" fill="#F7F9FF"/>
</svg>
