<svg width="41" height="40" viewBox="0 0 41 40" fill="none" xmlns="http://www.w3.org/2000/svg">
<path d="M20.5159 38.907C31.1947 38.907 39.8516 30.4212 39.8516 19.9535C39.8516 9.48576 31.1947 1 20.5159 1C9.83706 1 1.18018 9.48576 1.18018 19.9535C1.18018 30.4212 9.83706 38.907 20.5159 38.907Z" stroke="#F7F9FF" stroke-width="2" stroke-miterlimit="10"/>
<path d="M13.3711 2.33594C16.7766 6.10178 19.6732 10.2819 21.9893 14.773C23.0865 16.8575 24.058 19.0032 24.8988 21.1992C26.8912 26.3047 28.2213 31.6354 28.8581 37.0659" stroke="#F7F9FF" stroke-width="2" stroke-miterlimit="10"/>
<path d="M34.6401 6.99316C31.0753 10.4882 26.7504 13.1478 21.989 14.7731C15.3928 17.2795 8.34093 18.4285 1.27222 18.1486" stroke="#F7F9FF" stroke-width="2" stroke-miterlimit="10"/>
<path d="M39.7041 22.1379C34.9446 20.6542 29.8875 20.332 24.9722 21.1992C21.2646 21.8877 17.7756 23.4255 14.7897 25.6873C11.8038 27.9491 9.40574 30.8708 7.79102 34.2139" stroke="#F7F9FF" stroke-width="2" stroke-miterlimit="10"/>
</svg>
