<svg width="40" height="38" viewBox="0 0 40 38" fill="none" xmlns="http://www.w3.org/2000/svg">
<path fill-rule="evenodd" clip-rule="evenodd" d="M34.1119 0C37.0244 0 39.3852 2.31431 39.3852 5.16913V32.7378C39.3852 35.5927 37.0244 37.907 34.1119 37.907H5.98724C3.07484 37.907 0.713867 35.5927 0.713867 32.7378V5.16913C0.713867 2.31431 3.07484 0 5.98724 0H34.1119ZM34.1119 3.44609C35.0827 3.44609 35.8697 4.21753 35.8697 5.16913V32.7378C35.8697 33.6895 35.0827 34.4609 34.1119 34.4609H25.3229V22.3994H28.9725C29.729 22.3994 30.4007 21.9249 30.6401 21.2212L31.4188 18.9313C31.7034 18.0944 31.0679 17.2303 30.1681 17.2303H25.3229V13.7842C25.3229 12.9227 26.2018 12.0612 27.0807 12.0612H30.5963C31.5671 12.0612 32.3541 11.2897 32.3541 10.3381V9.15613C32.3541 8.59956 31.9915 8.10055 31.4423 7.95852C29.1382 7.36248 27.0807 7.36248 27.0807 7.36248C22.6862 7.36248 20.0496 10.3381 20.0496 12.9227V17.2303H16.534C15.5632 17.2303 14.7762 18.0017 14.7762 18.9533V20.6764C14.7762 21.628 15.5632 22.3994 16.534 22.3994H20.0496V34.4609H5.98724C5.01644 34.4609 4.22945 33.6895 4.22945 32.7378V5.16913C4.22945 4.21753 5.01644 3.44609 5.98724 3.44609H34.1119Z" fill="#F7F9FF"/>
</svg>
