<svg width="39" height="38" viewBox="0 0 39 38" fill="none" xmlns="http://www.w3.org/2000/svg">
<path d="M19.4276 10.7129L19.4241 10.7129C17.7502 10.7129 16.1165 11.1992 14.7296 12.1067L14.7296 12.1067C13.3431 13.014 12.2672 14.3003 11.6332 15.7993C10.9993 17.298 10.834 18.9452 11.1567 20.534L11.1567 20.534C11.4794 22.123 12.2769 23.587 13.4533 24.7391L19.4276 10.7129ZM19.4276 10.7129C20.539 10.7103 21.6392 10.9227 22.6651 11.3373C23.6906 11.7519 24.6205 12.3601 25.402 13.1254L25.402 13.1254C26.1833 13.8906 26.8008 14.7977 27.2208 15.794L27.2208 15.7941C27.6406 16.7899 27.8549 17.8562 27.8522 18.932V18.9357C27.8522 20.555 27.3622 22.1405 26.4399 23.4921L26.4399 23.4921M19.4276 10.7129L26.4399 23.4921M26.4399 23.4921C25.5175 24.8439 24.2033 25.9022 22.6596 26.5283C21.1156 27.1546 19.4151 27.3189 17.7739 26.9993M26.4399 23.4921L17.7739 26.9993M11.6129 17.4019L11.6129 17.4018C11.9227 15.8767 12.6865 14.48 13.8027 13.3868L13.8028 13.3867C14.9187 12.294 16.3368 11.5532 17.8759 11.2534L17.8759 11.2534C19.4151 10.9536 21.0105 11.1072 22.4622 11.696C23.9141 12.285 25.1601 13.2845 26.0389 14.5725L11.6129 17.4019ZM11.6129 17.4019C11.3031 18.9274 11.4624 20.5081 12.0693 21.9431C12.6761 23.3777 13.7015 24.5988 15.0107 25.4554M11.6129 17.4019L15.0107 25.4554M30.4415 9.28177L30.4415 9.28174C30.5386 9.13948 30.5885 8.97536 30.5885 8.80979C30.5885 8.58873 30.4992 8.37056 30.3299 8.20485L30.3296 8.20454C30.1593 8.03769 29.9214 7.93838 29.667 7.93838C29.4779 7.93838 29.2955 7.99341 29.1428 8.0933C28.9908 8.19289 28.8771 8.3311 28.8113 8.48669L30.4415 9.28177ZM30.4415 9.28177C30.3439 9.4248 30.2018 9.54094 30.0299 9.6107L30.0298 9.61073M30.4415 9.28177L30.0298 9.61073M30.0298 9.61073C29.8577 9.68054 29.6664 9.69933 29.4814 9.66332L30.0298 9.61073ZM17.7739 26.9993C16.1331 26.6796 14.6301 25.8914 13.4533 24.7392L17.7739 26.9993ZM15.0107 25.4554C16.3198 26.312 17.8555 26.7673 19.4241 26.7673M15.0107 25.4554L19.4241 26.7673M19.4241 26.7673C21.5265 26.7673 23.5493 25.9497 25.0454 24.4846C26.5425 23.0184 27.3895 21.0229 27.3895 18.9357C27.3895 17.3796 26.9181 15.8613 26.0389 14.5726L19.4241 26.7673ZM37.1508 11.1812H37.1525C37.2955 14.2175 37.2955 23.6551 37.1525 26.6907L37.1499 26.7439L37.1512 26.7972C37.2117 29.326 36.2543 31.7817 34.4771 33.6334C32.584 35.3761 30.0602 36.3249 27.4494 36.2651L27.3877 36.2637L27.3261 36.2673C24.189 36.4535 14.6592 36.4535 11.522 36.2673L11.4617 36.2637L11.4013 36.265C8.7902 36.3204 6.26688 35.3719 4.37016 33.6325C2.59357 31.7809 1.63653 29.3255 1.69692 26.7972L1.69819 26.7439L1.69568 26.6907C1.55261 23.6549 1.55261 14.2164 1.69568 11.1807L1.69819 11.1275L1.69692 11.0742C1.63653 8.54594 2.59358 6.09049 4.37016 4.23889C6.26688 2.49954 8.79021 1.55101 11.4013 1.60638L11.4511 1.60743L11.5009 1.60518C14.6036 1.46494 24.2445 1.46494 27.3473 1.60518L27.3935 1.60727L27.4398 1.60651C30.0618 1.5632 32.5888 2.53642 34.4724 4.30423C36.2444 6.14787 37.2028 8.59155 37.152 11.11L37.1508 11.1101V11.1812ZM35.9255 30.7133L36.0342 30.4434V30.4016C36.5712 28.8712 36.7408 26.6586 36.8023 24.6766C36.8507 23.1217 36.8332 21.5231 36.8195 20.2584C36.814 19.7572 36.8091 19.3085 36.8091 18.9357C36.8091 18.5627 36.814 18.1142 36.8195 17.6135C36.8332 16.3508 36.8506 14.7561 36.8023 13.2036C36.7366 11.092 36.5479 8.72176 35.9254 7.18174C35.5186 6.17281 34.9056 5.25838 34.1255 4.49447C33.3457 3.7309 32.416 3.13392 31.3944 2.739L31.2728 2.69199L31.1449 2.66667C27.2897 1.90339 23.3494 1.63775 19.4242 1.87639C15.5069 1.63732 11.5741 1.90301 7.72671 2.66682L7.60384 2.69122L7.48672 2.73565C6.45432 3.12733 5.5153 3.72811 4.73151 4.50073L4.73149 4.50075C3.95071 5.27043 3.3413 6.19361 2.94436 7.21177C2.32406 8.74078 2.12951 11.106 2.05804 13.2142C2.00386 14.8128 2.01902 16.4501 2.03089 17.7305C2.03517 18.1929 2.03902 18.6087 2.03902 18.9594C2.03902 19.3102 2.03516 19.7259 2.03088 20.1878C2.01902 21.4663 2.00387 23.0996 2.05805 24.6957C2.12975 26.8084 2.32544 29.1758 2.94687 30.7132C3.35374 31.7227 3.96703 32.6368 4.74682 33.4006C5.52679 34.1645 6.45671 34.7612 7.47782 35.156L7.59914 35.203L7.72673 35.2283C11.5741 35.992 15.5069 36.2577 19.4242 36.0187C23.3494 36.2575 27.2897 35.9918 31.1449 35.2284L31.2728 35.2031L31.3944 35.1561C32.4159 34.7612 33.3456 34.1644 34.1255 33.4006C34.9055 32.6367 35.5186 31.7226 35.9255 30.7133ZM29.4813 9.66331C29.2968 9.62734 29.1314 9.53936 29.0041 9.41476C28.8775 9.29059 28.795 9.13644 28.762 8.97378C28.7289 8.81102 28.7456 8.64203 28.8113 8.48672L29.4813 9.66331Z" fill="#F7F9FF" stroke="#F7F9FF" stroke-width="3"/>
</svg>
