<svg width="40" height="38" viewBox="0 0 40 38" fill="none" xmlns="http://www.w3.org/2000/svg">
<path d="M10.615 12.0612C12.0712 12.0612 13.2516 10.9041 13.2516 9.47687C13.2516 8.0496 12.0712 6.89258 10.615 6.89258C9.15875 6.89258 7.97827 8.0496 7.97827 9.47687C7.97827 10.9041 9.15875 12.0612 10.615 12.0612Z" fill="#F7F9FF"/>
<path d="M7.97827 15.5062C7.97827 14.5546 8.76527 13.7832 9.73606 13.7832H11.4939C12.4646 13.7832 13.2516 14.5546 13.2516 15.5062V29.2906C13.2516 30.2422 12.4646 31.0136 11.4939 31.0136H9.73606C8.76527 31.0136 7.97827 30.2422 7.97827 29.2906V15.5062Z" fill="#F7F9FF"/>
<path d="M18.5251 31.0136H20.2829C21.2537 31.0136 22.0407 30.2422 22.0407 29.2906V21.5369C22.0407 18.9523 27.3141 17.2293 27.3141 20.6754V29.2913C27.3141 30.2429 28.101 31.0136 29.0719 31.0136H30.8297C31.8005 31.0136 32.5874 30.2422 32.5874 29.2906V18.9523C32.5874 15.5062 29.9508 13.7832 26.4352 13.7832C22.9196 13.7832 22.0407 16.3678 22.0407 16.3678V15.5062C22.0407 14.5546 21.2537 13.7832 20.2829 13.7832H18.5251C17.5543 13.7832 16.7673 14.5546 16.7673 15.5062V29.2906C16.7673 30.2422 17.5543 31.0136 18.5251 31.0136Z" fill="#F7F9FF"/>
<path fill-rule="evenodd" clip-rule="evenodd" d="M34.345 0C37.2575 0 39.6184 2.31431 39.6184 5.16913V32.7378C39.6184 35.5927 37.2575 37.907 34.345 37.907H6.22039C3.308 37.907 0.947021 35.5927 0.947021 32.7378V5.16913C0.947021 2.31431 3.308 0 6.22039 0H34.345ZM34.345 3.44609C35.3159 3.44609 36.1028 4.21753 36.1028 5.16913V32.7378C36.1028 33.6895 35.3159 34.4609 34.345 34.4609H6.22039C5.2496 34.4609 4.4626 33.6895 4.4626 32.7378V5.16913C4.4626 4.21753 5.2496 3.44609 6.22039 3.44609H34.345Z" fill="#F7F9FF"/>
</svg>
