<svg width="43" height="42" viewBox="0 0 43 42" fill="none" xmlns="http://www.w3.org/2000/svg">
<path d="M40.1664 7.73049C39.9399 6.58338 39.5028 5.53868 38.8987 4.70099C38.2947 3.8633 37.545 3.26201 36.7246 2.95734C34.4805 1.75729 12.8042 1.27652 6.52705 3.14933C5.70999 3.46257 4.96677 4.07171 4.37182 4.91574C3.77687 5.75978 3.35106 6.80909 3.13704 7.95861C2.16084 14.1783 2.157 27.6143 3.30274 33.9617C3.52926 35.1088 3.96644 36.1535 4.5705 36.9913C5.17456 37.829 5.92431 38.4303 6.74469 38.735C11.183 40.1422 32.2484 40.2338 36.9425 38.5777C37.7595 38.2645 38.5026 37.6554 39.0975 36.8114C39.6925 35.9675 40.1182 34.9182 40.3323 33.7688C41.3724 26.9928 41.3807 14.3904 40.1664 7.73049Z" stroke="#F7F9FF" stroke-width="3" stroke-linecap="round" stroke-linejoin="round"/>
<path d="M28.1086 20.8116L17.9656 12.7402L18.0536 28.988L28.1086 20.8116Z" stroke="#F7F9FF" stroke-width="3" stroke-linecap="round" stroke-linejoin="round"/>
</svg>
