<svg width="338" height="481" viewBox="0 0 338 481" fill="none" xmlns="http://www.w3.org/2000/svg">
<path d="M7.94913 174.197C20.3421 124.192 47.7815 79.7597 86.1541 47.5345L120.719 93.3118C91.7498 117.662 71.0411 151.216 61.6853 188.966C52.2904 226.875 54.8508 266.968 68.9819 303.214C83.1132 339.46 108.053 369.902 140.052 389.954C171.891 409.906 214.993 419.97 251.908 415.939L251.908 472.591C203.066 478.019 153.861 466.664 111.653 440.215C69.3179 413.686 36.3119 373.403 17.6072 325.427C-1.09748 277.45 -4.48717 224.377 7.94913 174.197Z" stroke="#F7F7FF" stroke-opacity="0.4"/>
<mask id="path-2-inside-1_971_54" fill="white">
<path d="M229.068 0.803059C276.305 0.803057 322.374 16.2445 360.907 44.9923C399.44 73.74 428.532 114.374 444.162 161.275C459.791 208.177 461.185 259.029 448.151 306.801C435.117 354.572 408.299 396.903 371.405 427.94L336.1 381.479C363.843 358.14 384.009 326.309 393.81 290.387C403.611 254.465 402.562 216.226 390.81 180.958C379.057 145.69 357.181 115.135 328.206 93.5174C299.231 71.9002 264.588 60.2889 229.068 60.2889L229.068 0.803059Z"/>
</mask>
<path d="M229.068 0.803059C276.305 0.803057 322.374 16.2445 360.907 44.9923C399.44 73.74 428.532 114.374 444.162 161.275C459.791 208.177 461.185 259.029 448.151 306.801C435.117 354.572 408.299 396.903 371.405 427.94L336.1 381.479C363.843 358.14 384.009 326.309 393.81 290.387C403.611 254.465 402.562 216.226 390.81 180.958C379.057 145.69 357.181 115.135 328.206 93.5174C299.231 71.9002 264.588 60.2889 229.068 60.2889L229.068 0.803059Z" stroke="#F7F7FF" stroke-opacity="0.4" stroke-width="2" mask="url(#path-2-inside-1_971_54)"/>
<path d="M235.241 479.474C219.319 479.474 206.411 466.566 206.411 450.644L206.411 392.916C206.411 378.744 216.712 366.673 230.707 364.445C248.217 361.657 264.071 375.185 264.071 392.916L264.071 450.644C264.071 466.566 251.163 479.474 235.241 479.474ZM245.533 273.749C226.658 280.962 206.411 267.025 206.411 246.819L206.411 242.224C206.411 226.302 219.319 213.395 235.241 213.395C251.163 213.395 264.071 226.302 264.071 242.224L264.071 246.819C264.071 258.77 256.697 269.483 245.533 273.749Z" stroke="#F7F7FF" stroke-opacity="0.4"/>
<mask id="path-4-inside-2_971_54" fill="white">
<path d="M168.972 334.447C182.881 344.683 198.961 351.417 215.902 354.1C232.843 356.783 250.165 355.34 266.456 349.887C282.747 344.435 297.545 335.127 309.644 322.724C321.744 310.321 330.801 295.173 336.079 278.516C341.356 261.859 342.704 244.164 340.012 226.874C337.32 209.583 330.665 193.187 320.59 179.023C310.514 164.858 297.303 153.326 282.034 145.366C266.764 137.407 249.869 133.245 232.726 133.221L232.634 200.305C239.426 200.314 246.119 201.963 252.168 205.116C258.218 208.27 263.451 212.838 267.443 218.45C271.434 224.061 274.071 230.557 275.137 237.406C276.204 244.256 275.67 251.266 273.579 257.865C271.488 264.464 267.9 270.465 263.107 275.379C258.313 280.292 252.451 283.98 245.997 286.14C239.543 288.3 232.681 288.872 225.969 287.809C219.258 286.746 212.888 284.078 207.378 280.023L168.972 334.447Z"/>
</mask>
<path d="M168.972 334.447C182.881 344.683 198.961 351.417 215.902 354.1C232.843 356.783 250.165 355.34 266.456 349.887C282.747 344.435 297.545 335.127 309.644 322.724C321.744 310.321 330.801 295.173 336.079 278.516C341.356 261.859 342.704 244.164 340.012 226.874C337.32 209.583 330.665 193.187 320.59 179.023C310.514 164.858 297.303 153.326 282.034 145.366C266.764 137.407 249.869 133.245 232.726 133.221L232.634 200.305C239.426 200.314 246.119 201.963 252.168 205.116C258.218 208.27 263.451 212.838 267.443 218.45C271.434 224.061 274.071 230.557 275.137 237.406C276.204 244.256 275.67 251.266 273.579 257.865C271.488 264.464 267.9 270.465 263.107 275.379C258.313 280.292 252.451 283.98 245.997 286.14C239.543 288.3 232.681 288.872 225.969 287.809C219.258 286.746 212.888 284.078 207.378 280.023L168.972 334.447Z" stroke="#F7F7FF" stroke-opacity="0.4" stroke-width="2" mask="url(#path-4-inside-2_971_54)"/>
<rect x="43.231" y="200.05" width="66.3308" height="189.91" transform="rotate(-90 43.231 200.05)" stroke="#F7F7FF" stroke-opacity="0.4"/>
<path d="M229.069 122.06C215.788 122.06 205.022 111.294 205.022 98.0135L205.022 1.30346L243.615 1.30346C248.862 1.30346 253.115 5.55675 253.115 10.8035L253.115 98.0135C253.115 111.294 242.349 122.06 229.069 122.06Z" stroke="#F7F7FF" stroke-opacity="0.4"/>
</svg>
