<!DOCTYPE svg PUBLIC "-//W3C//DTD SVG 1.1//EN" "http://www.w3.org/Graphics/SVG/1.1/DTD/svg11.dtd">
<!-- Uploaded to: SVG Repo, www.svgrepo.com, Transformed by: SVG Repo Mixer Tools -->
<svg fill="#00c896" width="800px" height="800px" viewBox="0 0 512 512" version="1.1" xml:space="preserve" xmlns="http://www.w3.org/2000/svg" xmlns:xlink="http://www.w3.org/1999/xlink">
<g id="SVGRepo_bgCarrier" stroke-width="0"/>
<g id="SVGRepo_tracerCarrier" stroke-linecap="round" stroke-linejoin="round"/>
<g id="SVGRepo_iconCarrier"> <g id="_x34_71_x2C__Design_x2C__human_x2C__ruler_x2C__size_x2C__thinking"> <g> <path d="M236.836,29.236h-62.15v9.729h26.128c2.235,0,4.043,1.808,4.043,4.042 c0,2.202-1.808,4.043-4.043,4.043h-26.128v12.423h13.048c2.201,0,4.008,1.808,4.008,4.043c0,2.201-1.807,4.042-4.008,4.042 h-13.048V83.07h26.128c2.235,0,4.043,1.808,4.043,4.043c0,2.234-1.808,4.041-4.043,4.041h-26.128v14.625h13.048 c2.201,0,4.008,1.809,4.008,4.043c0,2.235-1.807,4.043-4.008,4.043h-13.048v15.545h26.128c2.235,0,4.043,1.807,4.043,4.043 c0,2.201-1.808,4.01-4.043,4.01h-26.128v14.657h13.048c2.201,0,4.008,1.808,4.008,4.043c0,2.234-1.807,4.042-4.008,4.042h-13.048 v15.512h26.128c2.235,0,4.043,1.809,4.043,4.043s-1.808,4.043-4.043,4.043h-26.128v14.658h13.048c2.201,0,4.008,1.807,4.008,4.041 c0,2.235-1.807,4.043-4.008,4.043h-13.048v15.513h26.128c2.235,0,4.043,1.808,4.043,4.043c0,2.234-1.808,4.042-4.043,4.042 h-26.128v14.658h13.048c2.201,0,4.008,1.807,4.008,4.01c0,2.234-1.807,4.042-4.008,4.042h-13.048v15.546h26.128 c2.235,0,4.043,1.807,4.043,4.041s-1.808,4.043-4.043,4.043h-26.128v14.625h13.048c2.201,0,4.008,1.808,4.008,4.043 c0,2.234-1.807,4.043-4.008,4.043h-13.048v15.512h26.128c2.235,0,4.043,1.84,4.043,4.043c0,2.234-1.808,4.041-4.043,4.041h-26.128 v14.659h13.048c2.201,0,4.008,1.808,4.008,4.042s-1.807,4.042-4.008,4.042h-13.048v15.513h26.128c2.235,0,4.043,1.808,4.043,4.042 c0,2.235-1.808,4.043-4.043,4.043h-26.128v14.657h13.048c2.201,0,4.008,1.809,4.008,4.044c0,2.201-1.807,4.042-4.008,4.042 h-13.048v15.513h26.128c2.235,0,4.043,1.808,4.043,4.042s-1.808,4.042-4.043,4.042h-26.128v17.551h62.15V29.236z M93.838,88.822 v276.528h21.46V202.174c0-2.234,1.808-4.043,4.043-4.043s4.043,1.809,4.043,4.043v163.177h21.492V140.223h-27.146 c-2.235,0-4.043-1.807-4.043-4.042c0-2.202,1.808-4.043,4.043-4.043h27.146V88.789l-25.535-45.617L93.838,88.822z M93.838,373.436 v12.652h51.039v-12.652H119.44h-0.098h-0.098H93.838z M93.838,394.174v21.362c0,5.883,2.4,11.239,6.243,15.085 c3.913,3.911,9.237,6.311,15.119,6.311h8.282c5.882,0,11.241-2.433,15.084-6.311c3.878-3.846,6.31-9.202,6.31-15.085v-21.362 H93.838z M386.703,220.514c-2.008-1.973-4.734-3.221-7.791-3.221c-3.022,0-5.784,1.248-7.788,3.221 c-1.973,1.971-3.222,4.732-3.222,7.788c0,3.024,1.249,5.784,3.222,7.789c2.004,1.973,4.766,3.222,7.788,3.222 c2.958,0,5.621-1.184,7.59-3.058l0.201-0.164c1.972-2.005,3.218-4.765,3.218-7.789 C389.921,225.246,388.675,222.484,386.703,220.514z M378.912,209.207c5.26,0,10.022,2.137,13.477,5.588 c3.449,3.482,5.586,8.248,5.586,13.507s-2.137,10.024-5.586,13.475l-0.264,0.263c-3.45,3.32-8.086,5.357-13.213,5.357 c-5.258,0-10.055-2.168-13.509-5.62c-3.45-3.45-5.587-8.216-5.587-13.475s2.137-10.024,5.622-13.475 C368.857,211.344,373.654,209.207,378.912,209.207z M395.049,171.807c1.182,1.906,0.592,4.371-1.313,5.554 c-1.875,1.15-4.373,0.56-5.524-1.314c-3.253-5.258-3.187-12.259-3.12-20.804c0.165-17.418,0.393-42.101-31.189-64.811 c-7.987-5.751-17.318-9.99-27.213-12.588c-10.156-2.662-20.902-3.614-31.452-2.76c-2.235,0.164-4.176-1.479-4.337-3.714 c-0.165-2.202,1.478-4.174,3.713-4.338c11.402-0.888,23.071,0.131,34.112,3.023c10.813,2.859,21.036,7.493,29.908,13.868 c34.937,25.11,34.674,52.257,34.509,71.385C393.076,162.571,393.013,168.52,395.049,171.807z M53.809,465.064 c-2.236,0-4.043-1.809-4.043-4.043c0-2.202,1.807-4.01,4.043-4.01h245.735c2.232,0,4.039,1.808,4.039,4.01 c0,2.234-1.807,4.043-4.039,4.043H53.809z M197.691,486c-2.2,0-4.008-1.808-4.008-4.043s1.808-4.043,4.008-4.043h170.081 c2.2,0,4.039,1.808,4.039,4.043S369.973,486,367.772,486H197.691z M385.158,486c-2.235,0-4.043-1.808-4.043-4.043 s1.808-4.043,4.043-4.043h21.261c2.235,0,4.043,1.808,4.043,4.043S408.654,486,406.419,486H385.158z M44.112,485.375 c-2.201,0-4.008-1.808-4.008-4.042c0-2.235,1.807-4.043,4.008-4.043h80.585c2.236,0,4.043,1.808,4.043,4.043 c0,2.234-1.807,4.042-4.043,4.042H44.112z M57.554,185.348c0-2.235,1.807-4.043,4.043-4.043c2.204,0,4.043,1.808,4.043,4.043 v202.418c0,2.234-1.839,4.041-4.043,4.041c-2.236,0-4.043-1.807-4.043-4.041V185.348z M266.905,433.776h85.944 c5.98-5.686,6.082-22.446,6.181-38.979c0.099-17.155,0.228-34.114,7.327-42.167c10.09-11.437,21.626-10.647,36.054-9.662 c3.614,0.23,7.426,0.494,11.143,0.559c23.233,0.395,28.164-11.502,28.36-25.307c0.099-5.422-0.491-11.305-1.018-16.957 c-1.513-15.152-2.825-28.725,8.412-33.228l0.2-0.099c1.808-0.689,2.727-0.887,4.271-1.184l1.643-0.295 c13.049-2.695,17.092-5.588,16.4-9.006c-0.821-4.075-6.114-9.893-12.325-16.729c-5.718-6.31-12.192-13.408-17.187-21.526 c-5.622-9.07-5.488-21.855-5.359-37.401c0.33-33.719,0.759-81.505-60.437-125.512c-15.516-11.174-33.558-19.324-52.685-24.354 c-18.373-4.832-37.794-6.736-56.925-5.62V433.776z" style="fill-rule:evenodd;clip-rule:evenodd;"/> </g> </g> <g id="Layer_1"/> </g>
</svg>