<svg width="39" height="38" viewBox="0 0 39 38" fill="none" xmlns="http://www.w3.org/2000/svg">
<path fill-rule="evenodd" clip-rule="evenodd" d="M33.2125 0C36.1088 0 38.4565 2.2676 38.4565 5.06481V32.0771C38.4565 34.8744 36.1088 37.142 33.2125 37.142H5.24407C2.34786 37.142 0 34.8744 0 32.0771V5.06481C0 2.2676 2.34786 0 5.24407 0H33.2125ZM33.2125 3.37654C34.1779 3.37654 34.9605 4.13241 34.9605 5.06481V32.0771C34.9605 33.0096 34.1779 33.7654 33.2125 33.7654H24.4723V21.9473H28.1016C28.8539 21.9473 29.5219 21.4824 29.7599 20.7929L30.5343 18.5492C30.8173 17.7292 30.1854 16.8825 29.2906 16.8825H24.4723V13.506C24.4723 12.6619 25.3464 11.8178 26.2204 11.8178H29.7164C30.6819 11.8178 31.4644 11.0619 31.4644 10.1295V8.97135C31.4644 8.42601 31.1038 7.93707 30.5577 7.7979C28.2664 7.2139 26.2204 7.2139 26.2204 7.2139C21.8503 7.2139 19.2283 10.1295 19.2283 12.6619V16.8825H15.7322C14.7668 16.8825 13.9842 17.6384 13.9842 18.5708V20.2591C13.9842 21.1915 14.7668 21.9473 15.7322 21.9473H19.2283V33.7654H5.24407C4.27867 33.7654 3.49605 33.0096 3.49605 32.0771V5.06481C3.49605 4.13241 4.27867 3.37654 5.24407 3.37654H33.2125Z" fill="#434449"/>
</svg>
