<svg width="457" height="480" viewBox="0 0 457 480" fill="none" xmlns="http://www.w3.org/2000/svg">
<g clip-path="url(#clip0_1584_16)">
<path d="M7.86075 173.394C20.2537 123.389 47.6931 78.9571 86.0657 46.7319L120.631 92.5092C91.6614 116.86 70.9527 150.414 61.597 188.164C52.202 226.072 54.7624 266.165 68.8936 302.411C83.0249 338.657 107.964 369.099 139.964 389.152C171.803 409.103 214.905 419.167 251.819 415.137V471.788C202.978 477.216 153.772 465.861 111.565 439.412C69.2295 412.883 36.2235 372.601 17.5189 324.624C-1.18586 276.647 -4.57554 223.574 7.86075 173.394Z" stroke="#434449"/>
<mask id="mask0_1584_16" style="mask-type:luminance" maskUnits="userSpaceOnUse" x="228" y="0" width="229" height="428">
<path d="M228.98 0.000488281C276.216 0.00048607 322.286 15.4419 360.819 44.1897C399.352 72.9375 428.444 113.571 444.073 160.473C459.703 207.374 461.097 258.227 448.063 305.998C435.029 353.769 408.211 396.1 371.317 427.137L336.012 380.676C363.754 357.337 383.92 325.506 393.721 289.584C403.522 253.662 402.474 215.423 390.721 180.155C378.969 144.887 357.093 114.332 328.117 92.7149C299.142 71.0977 264.5 59.4864 228.98 59.4864V0.000488281Z" fill="white"/>
</mask>
<g mask="url(#mask0_1584_16)">
<path d="M228.98 0.000488281C276.216 0.00048607 322.286 15.4419 360.819 44.1897C399.352 72.9375 428.444 113.571 444.073 160.473C459.703 207.374 461.097 258.227 448.063 305.998C435.029 353.769 408.211 396.1 371.317 427.137L336.012 380.676C363.754 357.337 383.92 325.506 393.721 289.584C403.522 253.662 402.474 215.423 390.721 180.155C378.969 144.887 357.093 114.332 328.117 92.7149C299.142 71.0977 264.5 59.4864 228.98 59.4864V0.000488281Z" stroke="#434449" stroke-width="2"/>
</g>
<path d="M206.323 449.841V392.113C206.323 377.941 216.623 365.871 230.619 363.642C248.129 360.854 263.982 374.383 263.982 392.113V449.841C263.982 465.763 251.075 478.671 235.153 478.671C219.23 478.671 206.323 465.763 206.323 449.841ZM206.323 246.016V241.422C206.323 225.499 219.23 212.592 235.153 212.592C251.075 212.592 263.982 225.499 263.982 241.422V246.016C263.982 257.968 256.608 268.68 245.444 272.946C226.57 280.159 206.323 266.222 206.323 246.016Z" stroke="#434449"/>
<mask id="mask1_1584_16" style="mask-type:luminance" maskUnits="userSpaceOnUse" x="168" y="132" width="174" height="223">
<path d="M168.884 333.644C182.792 343.88 198.872 350.614 215.813 353.297C232.754 355.981 250.076 354.537 266.367 349.084C282.658 343.632 297.456 334.324 309.556 321.921C321.655 309.518 330.713 294.371 335.99 277.713C341.267 261.056 342.615 243.361 339.924 226.071C337.232 208.781 330.577 192.385 320.501 178.22C310.425 164.056 297.214 152.523 281.945 144.564C266.676 136.604 249.781 132.442 232.637 132.418L232.546 199.502C239.337 199.512 246.031 201.16 252.08 204.314C258.129 207.467 263.363 212.036 267.354 217.647C271.346 223.258 273.982 229.754 275.049 236.604C276.115 243.453 275.581 250.464 273.49 257.062C271.4 263.661 267.811 269.662 263.018 274.576C258.225 279.49 252.362 283.177 245.908 285.337C239.455 287.497 232.592 288.069 225.881 287.006C219.169 285.943 212.799 283.275 207.289 279.22L168.884 333.644Z" fill="white"/>
</mask>
<g mask="url(#mask1_1584_16)">
<path d="M168.884 333.644C182.792 343.88 198.872 350.614 215.813 353.297C232.754 355.981 250.076 354.537 266.367 349.084C282.658 343.632 297.456 334.324 309.556 321.921C321.655 309.518 330.713 294.371 335.99 277.713C341.267 261.056 342.615 243.361 339.924 226.071C337.232 208.781 330.577 192.385 320.501 178.22C310.425 164.056 297.214 152.523 281.945 144.564C266.676 136.604 249.781 132.442 232.637 132.418L232.546 199.502C239.337 199.512 246.031 201.16 252.08 204.314C258.129 207.467 263.363 212.036 267.354 217.647C271.346 223.258 273.982 229.754 275.049 236.604C276.115 243.453 275.581 250.464 273.49 257.062C271.4 263.661 267.811 269.662 263.018 274.576C258.225 279.49 252.362 283.177 245.908 285.337C239.455 287.497 232.592 288.069 225.881 287.006C219.169 285.943 212.799 283.275 207.289 279.22L168.884 333.644Z" stroke="#434449" stroke-width="2"/>
</g>
<path d="M43.1426 132.917L43.1426 199.248H233.053V132.917H43.1426Z" stroke="#434449"/>
<path d="M204.934 97.2106V0.50049L243.527 0.500488C248.774 0.500488 253.027 4.75379 253.027 10.0005V97.2106C253.027 110.491 242.261 121.257 228.981 121.257C215.7 121.257 204.934 110.491 204.934 97.2106Z" stroke="#434449"/>
</g>
<defs>
<clipPath id="clip0_1584_16">
<rect width="457" height="480" fill="white"/>
</clipPath>
</defs>
</svg>
