<svg width="39" height="38" viewBox="0 0 39 38" fill="none" xmlns="http://www.w3.org/2000/svg">
<path d="M9.61422 11.8177C11.0623 11.8177 12.2363 10.684 12.2363 9.28555C12.2363 7.88709 11.0623 6.75342 9.61422 6.75342C8.16611 6.75342 6.99219 7.88709 6.99219 9.28555C6.99219 10.684 8.16611 11.8177 9.61422 11.8177Z" fill="#434449"/>
<path d="M6.99219 15.1932C6.99219 14.2608 7.77481 13.5049 8.74021 13.5049H10.4882C11.4536 13.5049 12.2363 14.2607 12.2363 15.1932V28.6993C12.2363 29.6318 11.4536 30.3876 10.4882 30.3876H8.74021C7.77481 30.3876 6.99219 29.6318 6.99219 28.6993V15.1932Z" fill="#434449"/>
<path d="M17.4804 30.3876H19.2285C20.1939 30.3876 20.9765 29.6318 20.9765 28.6993V21.1021C20.9765 18.5697 26.2206 16.8814 26.2206 20.258V28.7C26.2206 29.6324 27.0032 30.3876 27.9686 30.3876H29.7166C30.6821 30.3876 31.4646 29.6318 31.4646 28.6993V18.5697C31.4646 15.1932 28.8426 13.5049 25.3466 13.5049C21.8505 13.5049 20.9765 16.0373 20.9765 16.0373V15.1932C20.9765 14.2607 20.1939 13.5049 19.2285 13.5049H17.4804C16.515 13.5049 15.7324 14.2608 15.7324 15.1932V28.6993C15.7324 29.6318 16.515 30.3876 17.4804 30.3876Z" fill="#434449"/>
<path fill-rule="evenodd" clip-rule="evenodd" d="M33.2125 0C36.1088 0 38.4565 2.2676 38.4565 5.06481V32.0771C38.4565 34.8744 36.1088 37.142 33.2125 37.142H5.24407C2.34786 37.142 0 34.8744 0 32.0771V5.06481C0 2.2676 2.34786 0 5.24407 0H33.2125ZM33.2125 3.37654C34.1779 3.37654 34.9605 4.13241 34.9605 5.06481V32.0771C34.9605 33.0096 34.1779 33.7654 33.2125 33.7654H5.24407C4.27867 33.7654 3.49605 33.0096 3.49605 32.0771V5.06481C3.49605 4.13241 4.27867 3.37654 5.24407 3.37654H33.2125Z" fill="#434449"/>
</svg>
