<!DOCTYPE svg PUBLIC "-//W3C//DTD SVG 1.1//EN" "http://www.w3.org/Graphics/SVG/1.1/DTD/svg11.dtd">
<!-- Uploaded to: SVG Repo, www.svgrepo.com, Transformed by: SVG Repo Mixer Tools -->
<svg fill="#00c896" height="800px" width="800px" version="1.1" id="Capa_1" xmlns="http://www.w3.org/2000/svg" xmlns:xlink="http://www.w3.org/1999/xlink" viewBox="0 0 455 455" xml:space="preserve">
<g id="SVGRepo_bgCarrier" stroke-width="0"/>
<g id="SVGRepo_tracerCarrier" stroke-linecap="round" stroke-linejoin="round"/>
<g id="SVGRepo_iconCarrier"> <g> <path d="M327.697,199.424H127.303c-20.568,0-37.303,16.734-37.303,37.303v21.457c0,4.143,3.357,7.5,7.5,7.5h260 c4.143,0,7.5-3.357,7.5-7.5v-21.457C365,216.158,348.266,199.424,327.697,199.424z M350,250.684H105v-13.957 c0-12.298,10.005-22.303,22.303-22.303h200.395c12.298,0,22.303,10.005,22.303,22.303V250.684z"/> <path d="M408.697,104.057H365V7.5c0-4.143-3.357-7.5-7.5-7.5h-260C93.357,0,90,3.357,90,7.5v96.557H46.303 C25.734,104.057,9,120.791,9,141.359v180.006c0,4.143,3.357,7.5,7.5,7.5h83.446c0.018,0,0.036-0.002,0.054-0.003V447.5 c0,4.143,3.357,7.5,7.5,7.5h240c4.143,0,7.5-3.357,7.5-7.5V328.862c0.018,0,0.036,0.003,0.054,0.003H438.5 c4.143,0,7.5-3.357,7.5-7.5V141.359C446,120.791,429.266,104.057,408.697,104.057z M105,15h245v89.057h-50V57.851 c0-4.143-3.357-7.5-7.5-7.5s-7.5,3.357-7.5,7.5v46.206h-50V57.851c0-4.143-3.357-7.5-7.5-7.5s-7.5,3.357-7.5,7.5v46.206h-50V57.851 c0-4.143-3.357-7.5-7.5-7.5s-7.5,3.357-7.5,7.5v46.206h-50V15z M431,313.865h-75.946c-0.018,0-0.036,0.002-0.054,0.003v-25.685 c0-4.143-3.357-7.5-7.5-7.5s-7.5,3.357-7.5,7.5V440H115V288.184c0-4.143-3.357-7.5-7.5-7.5s-7.5,3.357-7.5,7.5v25.685 c-0.018,0-0.036-0.003-0.054-0.003H24V141.359c0-12.298,10.005-22.303,22.303-22.303h362.395c12.298,0,22.303,10.005,22.303,22.303 V313.865z"/> <path d="M396,149.837c-5.514,0-10,4.486-10,10s4.486,10,10,10s10-4.486,10-10S401.514,149.837,396,149.837z"/> <path d="M351,169.837c5.514,0,10-4.486,10-10s-4.486-10-10-10s-10,4.486-10,10S345.486,169.837,351,169.837z"/> <path d="M176.259,295.816l2.31-2.189c3.007-2.849,3.134-7.596,0.284-10.603c-2.85-3.008-7.597-3.134-10.603-0.284l-8.054,7.633 c-1.494,1.416-2.341,3.385-2.341,5.443s0.847,4.027,2.341,5.443l59.089,56.002l-57.815,54.795 c-3.007,2.849-3.134,7.596-0.284,10.603c1.475,1.556,3.458,2.341,5.444,2.341c1.853,0,3.708-0.682,5.158-2.057l63.559-60.238 c1.494-1.416,2.341-3.385,2.341-5.443s-0.847-4.027-2.341-5.443L176.259,295.816z"/> <path d="M294.616,280.929c-4.007,1.05-6.403,5.149-5.354,9.156c0.489,1.867,0.737,3.796,0.737,5.731 c0,12.406-10.094,22.5-22.5,22.5s-22.5-10.094-22.5-22.5c0-1.936,0.248-3.864,0.737-5.731c1.05-4.007-1.347-8.106-5.354-9.156 c-4.012-1.054-8.106,1.348-9.156,5.354c-0.814,3.108-1.228,6.316-1.228,9.534c0,20.678,16.822,37.5,37.5,37.5 s37.5-16.822,37.5-37.5c0-3.218-0.413-6.426-1.228-9.534C302.723,282.277,298.63,279.879,294.616,280.929z"/> </g> </g>
</svg>