<svg width="32" height="31" viewBox="0 0 32 31" fill="none" xmlns="http://www.w3.org/2000/svg">
<path d="M28.8 30.3943H3.2C2.35131 30.3943 1.53737 30.0572 0.937258 29.4571C0.337142 28.857 0 28.043 0 27.1943V6.39434C0 5.54564 0.337142 4.73171 0.937258 4.13159C1.53737 3.53148 2.35131 3.19434 3.2 3.19434H9.6C10.0243 3.19434 10.4313 3.36291 10.7314 3.66297C11.0314 3.96302 11.2 4.36999 11.2 4.79434C11.2 5.21868 11.0314 5.62565 10.7314 5.92571C10.4313 6.22576 10.0243 6.39434 9.6 6.39434H3.2V27.1943H28.8V17.5943C28.8 17.17 28.9686 16.763 29.2686 16.463C29.5687 16.1629 29.9757 15.9943 30.4 15.9943C30.8243 15.9943 31.2313 16.1629 31.5314 16.463C31.8314 16.763 32 17.17 32 17.5943V27.1943C32 28.043 31.6629 28.857 31.0627 29.4571C30.4626 30.0572 29.6487 30.3943 28.8 30.3943Z" fill="#434449"/>
<path d="M31.3927 6.74641L23.3927 0.34641C23.1585 0.1607 22.877 0.0442829 22.5801 0.0103486C22.2832 -0.0235857 21.9827 0.0263196 21.7126 0.15441C21.4404 0.284088 21.2103 0.488077 21.0489 0.742856C20.8876 0.997636 20.8015 1.29283 20.8006 1.59441V3.49841C17.975 4.28537 15.4272 5.84988 13.4471 8.01383C11.467 10.1778 10.1343 12.8542 9.60065 15.7384C9.54232 16.0987 9.60889 16.468 9.78932 16.7852C9.96976 17.1024 10.2532 17.3484 10.5927 17.4824C10.7861 17.5589 10.9926 17.597 11.2007 17.5944C11.4642 17.593 11.7233 17.5266 11.955 17.401C12.1866 17.2754 12.3837 17.0945 12.5287 16.8744C14.4007 14.0424 18.5287 13.1784 20.8006 12.9064V14.3944C20.8015 14.696 20.8876 14.9912 21.0489 15.246C21.2103 15.5007 21.4404 15.7047 21.7126 15.8344C21.9827 15.9625 22.2832 16.0124 22.5801 15.9785C22.877 15.9445 23.1585 15.8281 23.3927 15.6424L31.3927 9.24241C31.5795 9.09249 31.7303 8.90251 31.834 8.68651C31.9376 8.47051 31.9914 8.23399 31.9914 7.99441C31.9914 7.75483 31.9376 7.51831 31.834 7.30231C31.7303 7.08631 31.5795 6.89633 31.3927 6.74641Z" fill="#434449"/>
</svg>
